<svg width="81" height="80" viewBox="0 0 81 80" fill="none" xmlns="http://www.w3.org/2000/svg">
<path d="M39.8551 0.00934599C38.9624 0.107447 38.2179 0.956553 38.2371 1.85436V7.33283C21.6353 8.23518 8.32429 21.5879 7.41041 38.188H1.73329C0.781895 38.2325 -0.0427866 39.1385 0.00172204 40.0899C0.0462307 41.0412 0.952209 41.8661 1.90351 41.8214H7.41041C8.32429 58.4197 21.6354 71.7473 38.2371 72.6482V78.1549C38.2235 79.1147 39.0939 80 40.0538 80C41.0137 80 41.8841 79.1147 41.8705 78.1549V72.6482C58.4606 71.7335 71.8108 58.4104 72.7257 41.8214H78.204C79.1638 41.835 80.0491 40.9645 80.0491 40.0047C80.0491 39.0448 79.1638 38.1745 78.204 38.188H72.7257C71.8108 21.5972 58.4609 8.24889 41.8705 7.33283V1.85436C41.8923 0.823844 40.8796 -0.103561 39.8551 0.00934599ZM38.2371 10.9946V16.3878C38.2235 17.3475 39.0939 18.2329 40.0538 18.2329C41.0137 18.2329 41.8841 17.3475 41.8705 16.3878V10.9946C56.4865 11.9052 68.1672 23.5681 69.064 38.188H63.5004C62.549 38.2325 61.7243 39.1385 61.7688 40.0899C61.8133 41.0412 62.7193 41.8661 63.6706 41.8214H69.064C68.1672 56.4394 56.4865 68.0776 41.8705 68.9864V63.6215C41.8923 62.591 40.8796 61.6635 39.8551 61.7764C38.9624 61.8745 38.2179 62.7237 38.2371 63.6215V68.9864C23.6096 68.0909 11.9393 56.4489 11.0438 41.8214H16.4369C17.3967 41.835 18.2821 40.9645 18.2821 40.0047C18.2821 39.0448 17.3967 38.1745 16.4369 38.188H11.0438C11.9393 23.5586 23.6096 11.8919 38.2371 10.9946ZM31.6801 27.2595C30.7289 27.304 29.9891 28.21 30.0337 29.1614C30.0782 30.1126 30.8992 30.9377 31.8504 30.8929H33.6671V39.9763H31.8504C30.8907 39.9627 30.0905 40.8332 30.0905 41.793C30.0905 42.753 30.8907 43.6233 31.8504 43.6097H33.6671V45.4264H31.8504C30.8472 45.4264 30.0337 46.2398 30.0337 47.2431C30.0337 48.2464 30.8472 49.0597 31.8504 49.0597H33.6671V52.6931C33.6534 53.6529 34.5239 54.5098 35.4837 54.5098C36.4435 54.5098 37.314 53.6529 37.3004 52.6931V49.0597H44.5671C45.5704 49.0597 46.3838 48.2464 46.3838 47.2431C46.3838 46.2398 45.5704 45.4264 44.5671 45.4264H37.3004V43.6097H43.6588C48.0463 43.6097 51.8339 39.9852 51.8339 35.4346C51.8339 30.8841 48.0463 27.2595 43.6588 27.2595H31.6801ZM37.3004 30.8929H43.6588C46.0072 30.8929 48.2005 32.9401 48.2005 35.4346C48.2005 37.9292 46.0072 39.9763 43.6588 39.9763H37.3004V30.8929Z" fill="#82ABFE"/>
</svg>
