<svg width="80" height="80" viewBox="0 0 80 80" fill="none" xmlns="http://www.w3.org/2000/svg">
<path d="M65.2 61.2798L55.44 53.5998C53.44 51.9998 50.56 52.3198 48.88 54.2398C47.12 56.2398 46 57.5998 45.6 57.9198C42.64 60.8798 36.48 56.5598 29.92 49.9998C23.36 43.4398 19.12 37.3598 22.08 34.3998C22.4 34.0798 23.76 32.8798 25.76 31.1198C27.68 29.4398 28 26.5598 26.4 24.5598L18.72 14.7998C17.36 13.1198 15.04 12.5598 13.12 13.3598C10.48 14.4798 5.76 18.3998 4.48 19.6798C-2.56 26.7998 6.24 42.9598 21.6 58.3998C36.96 73.8398 53.2 82.6398 60.24 75.5198C61.52 74.2398 65.44 69.5198 66.56 66.8798C67.44 64.8798 66.88 62.6398 65.2 61.2798Z" fill="url(#paint0_linear)"/>
<path d="M41.2 26.9601C39.12 26.4801 37.12 28.0801 37.28 30.2401C37.36 31.6001 38.4 32.7201 39.68 33.1201C41.36 33.5201 42.96 34.4001 44.24 35.6801C45.52 36.9601 46.4 38.5601 46.8 40.2401C47.12 41.6001 48.24 42.5601 49.68 42.6401C51.84 42.8001 53.44 40.8001 52.96 38.7201C52.4 36.0001 50.96 33.3601 48.8 31.2001C46.64 29.0401 44 27.6001 41.2 26.9601Z" fill="url(#paint1_linear)"/>
<path d="M62.3201 43.5997C64.2401 43.7597 65.84 42.0797 65.68 40.1597C65.1201 33.7597 62.4001 27.4397 57.5201 22.5597C52.6401 17.6797 46.3201 14.9597 39.9201 14.3997C38.0001 14.2397 36.3201 15.8397 36.4801 17.7597C36.5601 19.2797 37.7601 20.5597 39.3601 20.7197C44.4001 21.1197 49.2801 23.2797 53.0401 27.1197C56.8801 30.9597 58.9601 35.8397 59.4401 40.7997C59.4401 42.3197 60.7201 43.5197 62.3201 43.5997Z" fill="url(#paint2_linear)"/>
<path d="M66.1599 13.8399C58.5599 6.31995 48.7199 2.31995 38.7199 1.99995C36.8799 1.91995 35.3599 3.51995 35.5199 5.35995C35.5999 6.95995 36.9599 8.23995 38.5599 8.31995C46.9599 8.63995 55.2799 11.9999 61.5999 18.3999C67.9999 24.7999 71.3599 33.1199 71.5999 41.4399C71.6799 43.0399 72.8799 44.3999 74.5599 44.4799C76.3999 44.6399 77.9999 43.1199 77.9199 41.2799C77.6799 31.2799 73.6799 21.4399 66.1599 13.8399Z" fill="url(#paint3_linear)"/>
<defs>
<linearGradient id="paint0_linear" x1="34.6238" y1="79.8297" x2="34.6238" y2="13.0005" gradientUnits="userSpaceOnUse">
<stop stop-color="#F2C94C"/>
<stop offset="1" stop-color="#FFD020"/>
</linearGradient>
<linearGradient id="paint1_linear" x1="45.1892" y1="43.0873" x2="45.1892" y2="26.8745" gradientUnits="userSpaceOnUse">
<stop stop-color="#F2C94C"/>
<stop offset="1" stop-color="#FFD020"/>
</linearGradient>
<linearGradient id="paint2_linear" x1="51.1376" y1="44.422" x2="51.1376" y2="14.3887" gradientUnits="userSpaceOnUse">
<stop stop-color="#F2C94C"/>
<stop offset="1" stop-color="#FFD020"/>
</linearGradient>
<linearGradient id="paint3_linear" x1="56.7987" y1="45.6719" x2="56.7987" y2="1.99707" gradientUnits="userSpaceOnUse">
<stop stop-color="#F2C94C"/>
<stop offset="1" stop-color="#FFD020"/>
</linearGradient>
</defs>
</svg>
