<svg width="100" height="100" viewBox="0 0 100 100" fill="none" xmlns="http://www.w3.org/2000/svg">
<path d="M19.5999 56.7583H15.0916V61.2666H19.5999V56.7583Z" fill="url(#paint0_linear)"/>
<path d="M62.3833 59.0085V61.2585H59.5916L57.5666 63.2835L55.3166 65.5335H48.9416V61.2585H24.0999V59.0085H49.0999L51.1916 56.9168L60.3582 47.7502H24.0999V45.5002H62.3833V45.7252L66.8916 41.2168V9.4585H8.33325V90.5418H66.8916V53.9585L61.8416 59.0085H62.3833ZM62.3833 34.2335H24.0999V31.9835H62.3833V34.2335ZM12.8416 16.2168H37.6166V18.4668H12.8416V16.2168ZM12.8416 20.7252H37.6166V22.9752H12.8416V20.7252ZM12.8416 27.4835H21.8499V36.4835H12.8416V27.4835ZM12.8416 41.0002H21.8499V50.0002H12.8416V41.0002ZM12.8416 54.5168H21.8499V63.5168H12.8416V54.5168ZM44.3749 86.0502H12.8416V83.8002H44.3666L44.3749 86.0502ZM44.3749 79.2918H12.8416V77.0418H44.3666L44.3749 79.2918ZM62.3833 72.5002H12.8416V70.2502H62.3833V72.5002Z" fill="url(#paint1_linear)"/>
<path d="M19.5999 29.7334H15.0916V34.2417H19.5999V29.7334Z" fill="url(#paint2_linear)"/>
<path d="M19.5999 43.2417H15.0916V47.75H19.5999V43.2417Z" fill="url(#paint3_linear)"/>
<path d="M51.3501 60.2252V63.4002H54.5251L68.8001 49.1252L65.6251 45.9502L51.3501 60.2252Z" fill="url(#paint4_linear)"/>
<path d="M91.0082 23.7415C90.8 23.5326 90.5525 23.3669 90.2801 23.2538C90.0077 23.1407 89.7157 23.0825 89.4207 23.0825C89.1258 23.0825 88.8337 23.1407 88.5613 23.2538C88.2889 23.3669 88.0415 23.5326 87.8332 23.7415L67.2166 44.3665L70.3832 47.4998L91.0082 26.9165C91.2171 26.7082 91.3828 26.4608 91.4959 26.1884C91.609 25.916 91.6672 25.6239 91.6672 25.329C91.6672 25.034 91.609 24.742 91.4959 24.4696C91.3828 24.1972 91.2171 23.9497 91.0082 23.7415Z" fill="url(#paint5_linear)"/>
<defs>
<linearGradient id="paint0_linear" x1="17.3546" y1="61.3919" x2="17.3546" y2="56.7583" gradientUnits="userSpaceOnUse">
<stop stop-color="#F2C94C"/>
<stop offset="1" stop-color="#FFD020"/>
</linearGradient>
<linearGradient id="paint1_linear" x1="37.7272" y1="92.7941" x2="37.7272" y2="9.4585" gradientUnits="userSpaceOnUse">
<stop stop-color="#F2C94C"/>
<stop offset="1" stop-color="#FFD020"/>
</linearGradient>
<linearGradient id="paint2_linear" x1="17.3546" y1="34.367" x2="17.3546" y2="29.7334" gradientUnits="userSpaceOnUse">
<stop stop-color="#F2C94C"/>
<stop offset="1" stop-color="#FFD020"/>
</linearGradient>
<linearGradient id="paint3_linear" x1="17.3546" y1="47.8753" x2="17.3546" y2="43.2417" gradientUnits="userSpaceOnUse">
<stop stop-color="#F2C94C"/>
<stop offset="1" stop-color="#FFD020"/>
</linearGradient>
<linearGradient id="paint4_linear" x1="60.1093" y1="63.8849" x2="60.1093" y2="45.9502" gradientUnits="userSpaceOnUse">
<stop stop-color="#F2C94C"/>
<stop offset="1" stop-color="#FFD020"/>
</linearGradient>
<linearGradient id="paint5_linear" x1="79.4898" y1="48.1781" x2="79.4898" y2="23.0825" gradientUnits="userSpaceOnUse">
<stop stop-color="#F2C94C"/>
<stop offset="1" stop-color="#FFD020"/>
</linearGradient>
</defs>
</svg>
