<svg width="100" height="100" viewBox="0 0 100 100" fill="none" xmlns="http://www.w3.org/2000/svg">
<path d="M86.8514 77.1139L86.8538 77.1165L87.4999 77.5822V41.5415L60.0059 57.7681L86.8514 77.1139Z" fill="url(#paint0_linear)"/>
<path d="M19.6094 27.2974H18.9375C15.3906 27.2974 12.5 30.188 12.5 33.7349V37.9067L19.6094 42.0942V27.2974Z" fill="url(#paint1_linear)"/>
<path d="M81.0625 27.2974H80.3906V42.0942L87.5 37.9067V33.7349C87.5 30.188 84.6094 27.2974 81.0625 27.2974Z" fill="url(#paint2_linear)"/>
<path d="M85.0235 79.6501L52.7405 56.3858C51.1017 55.2047 48.8983 55.2047 47.2595 56.3858L14.9757 79.6501L14.9754 79.6503L12.5 81.4341V83.7341C12.5 84.597 13.1996 85.2966 14.0625 85.2966H85.9375C86.8011 85.2966 87.5 84.597 87.5 83.7341V81.4342L85.0259 79.6511C85.0251 79.6506 85.0243 79.6507 85.0235 79.6501Z" fill="url(#paint3_linear)"/>
<path d="M22.7178 70.2188L39.9946 57.7688L12.5 41.542V77.5818L22.7165 70.2194L22.7178 70.2188Z" fill="url(#paint4_linear)"/>
<path d="M43.375 29.063C43.25 29.0004 43.0781 28.9692 42.8594 28.9692C42.4219 28.9692 41.8125 29.0942 41.1718 29.4067C39.875 30.0474 38.9218 31.313 38.7656 32.6411C38.625 33.7192 39.1875 35.4536 40.3125 35.6099C40.5781 35.641 41 35.641 41.5469 35.1255C42.8907 33.8754 43.6719 30.9379 43.6406 29.4067C43.5469 29.1411 43.4375 29.0785 43.375 29.063Z" fill="url(#paint5_linear)"/>
<path d="M45.4375 53.8442C48.1719 51.8755 51.8281 51.8755 54.5625 53.8442L57.2344 55.7661L77.2657 43.9536V20.9536C77.2657 20.0786 76.5782 19.3911 75.7032 19.3911H63.0938V16.2661C63.0938 15.4067 62.3906 14.7036 61.5313 14.7036H24.2969C23.4375 14.7036 22.7344 15.4067 22.7344 16.2661V43.9536L42.7656 55.7661L45.4375 53.8442ZM63.375 27.3598H70.0469C70.9219 27.3598 71.6094 28.063 71.6094 28.9223C71.6094 29.7973 70.9219 30.4848 70.0469 30.4848H63.375C62.5157 30.4848 61.8125 29.7973 61.8125 28.9223C61.8125 28.063 62.5157 27.3598 63.375 27.3598ZM63.375 34.0161H70.0469C70.9219 34.0161 71.6094 34.7192 71.6094 35.5786C71.6094 36.4379 70.9219 37.1411 70.0469 37.1411H63.375C62.5157 37.1411 61.8125 36.4379 61.8125 35.5786C61.8125 34.7192 62.5157 34.0161 63.375 34.0161ZM36.0469 42.3911C33.3438 40.8598 31.3907 38.3598 30.5625 35.3755C29.75 32.3755 30.1251 29.2505 31.6563 26.5473C33.1875 23.8442 35.6719 21.9067 38.6719 21.0785C44.7812 19.3755 51.125 22.9224 52.9062 28.9692C52.9375 29.0317 52.9532 29.0942 52.9688 29.1724C52.9844 29.2036 53 29.2348 53 29.2661C53.0156 29.313 53.0156 29.3442 53.0156 29.3911C53.5781 32.2348 52.7031 35.0629 50.6875 36.7505C49.7031 37.563 48.4844 37.8911 47.3594 37.6411C46.3437 37.4223 45.5 36.7661 44.9688 35.7974C44.5937 36.4067 44.1719 36.9536 43.6719 37.4067C42.7344 38.2973 41.6407 38.7504 40.5 38.7504C40.2969 38.7504 40.0937 38.7349 39.8907 38.7036C36.9375 38.2973 35.3281 35.0473 35.6563 32.2661C35.9532 29.8754 37.5469 27.7036 39.8125 26.5942C40.4688 26.2817 42.75 25.313 44.6875 26.2192C45.4063 26.5473 46.3125 27.2504 46.7032 28.7348C46.7188 28.7973 46.7344 28.8442 46.7344 28.9067C46.75 28.9692 46.75 29.0317 46.75 29.0785C46.8281 30.2661 46.9219 30.8911 47.1563 32.1567L47.2032 32.4223C47.3281 33.0942 47.4375 33.7192 47.6563 34.2036C47.7344 34.3598 47.8594 34.5473 48.0313 34.5942C48.2187 34.6255 48.4532 34.5473 48.6875 34.3442C50.0313 33.2192 50.2188 31.3755 49.9531 30.0161C48.7031 25.5004 44.0313 22.8285 39.5001 24.0786C37.3125 24.6879 35.5 26.1098 34.375 28.0786C33.2656 30.0629 32.9687 32.3442 33.5781 34.5317C34.1875 36.7192 35.6094 38.5474 37.5781 39.6567C39.5625 40.7817 41.8438 41.063 44.0313 40.4692C44.625 40.2974 45.2031 40.063 45.7501 39.7817C46.5 39.3911 47.4531 39.6723 47.8594 40.4379C48.25 41.2036 47.9688 42.1411 47.2032 42.5474C46.4531 42.938 45.6719 43.2504 44.875 43.4692C43.8438 43.7661 42.7969 43.9067 41.75 43.9067C39.7657 43.9067 37.8125 43.3911 36.0469 42.3911Z" fill="url(#paint6_linear)"/>
<defs>
<linearGradient id="paint0_linear" x1="73.8068" y1="78.5833" x2="73.8068" y2="41.5415" gradientUnits="userSpaceOnUse">
<stop stop-color="#F2C94C"/>
<stop offset="1" stop-color="#FFD020"/>
</linearGradient>
<linearGradient id="paint1_linear" x1="16.0686" y1="42.5052" x2="16.0686" y2="27.2974" gradientUnits="userSpaceOnUse">
<stop stop-color="#F2C94C"/>
<stop offset="1" stop-color="#FFD020"/>
</linearGradient>
<linearGradient id="paint2_linear" x1="83.9592" y1="42.5052" x2="83.9592" y2="27.2974" gradientUnits="userSpaceOnUse">
<stop stop-color="#F2C94C"/>
<stop offset="1" stop-color="#FFD020"/>
</linearGradient>
<linearGradient id="paint3_linear" x1="50.1471" y1="86.1243" x2="50.1471" y2="55.5" gradientUnits="userSpaceOnUse">
<stop stop-color="#F2C94C"/>
<stop offset="1" stop-color="#FFD020"/>
</linearGradient>
<linearGradient id="paint4_linear" x1="26.3012" y1="78.5829" x2="26.3012" y2="41.542" gradientUnits="userSpaceOnUse">
<stop stop-color="#F2C94C"/>
<stop offset="1" stop-color="#FFD020"/>
</linearGradient>
<linearGradient id="paint5_linear" x1="41.2026" y1="35.8057" x2="41.2026" y2="28.9692" gradientUnits="userSpaceOnUse">
<stop stop-color="#F2C94C"/>
<stop offset="1" stop-color="#FFD020"/>
</linearGradient>
<linearGradient id="paint6_linear" x1="50.1069" y1="56.9067" x2="50.1069" y2="14.7036" gradientUnits="userSpaceOnUse">
<stop stop-color="#F2C94C"/>
<stop offset="1" stop-color="#FFD020"/>
</linearGradient>
</defs>
</svg>
