<svg width="100" height="100" viewBox="0 0 100 100" fill="none" xmlns="http://www.w3.org/2000/svg">
<path d="M68.6999 69.9999C75.5999 62.8999 85 50.2999 85 35.1999C85 22.2999 74.6 11.8999 61.7 11.8999C48.7999 11.8999 38.4 22.2999 38.4 35.1999C38.4 38.8999 39 42.4999 39.9 45.8999L30.2999 37.7999H9.69995L19.7 88.1999H90.3L68.6999 69.9999ZM61.7 22.9999C68.4 22.9999 73.8 28.3999 73.8 35.0999C73.8 41.7999 68.4 47.1999 61.7 47.1999C55 47.1999 49.5999 41.7999 49.5999 35.0999C49.5999 28.3999 55 22.9999 61.7 22.9999ZM14.6 41.7999H21.7L24 45.5999H27.4L24.8 41.7999H28.9L43 53.5999C49.7999 67.3999 61.7999 76.3999 61.7999 76.3999C61.7999 76.3999 63.5 75.0999 66 72.7999L79.5 84.0999H54.5999L46.0999 71.9999H40.5999L48.2 84.0999H23L14.6 41.7999Z" fill="url(#paint0_linear)"/>
<path d="M27.3 51.2998L35.3 64.1998H40.3L31.2001 51.2998H27.3Z" fill="url(#paint1_linear)"/>
<defs>
<linearGradient id="paint0_linear" x1="50.158" y1="90.3193" x2="50.158" y2="11.8999" gradientUnits="userSpaceOnUse">
<stop stop-color="#F2C94C"/>
<stop offset="1" stop-color="#FFD020"/>
</linearGradient>
<linearGradient id="paint1_linear" x1="33.8255" y1="64.5581" x2="33.8255" y2="51.2998" gradientUnits="userSpaceOnUse">
<stop stop-color="#F2C94C"/>
<stop offset="1" stop-color="#FFD020"/>
</linearGradient>
</defs>
</svg>
