<?xml version="1.0" encoding="utf-8"?><svg viewBox="0 0 502.66 502.66" xmlns="http://www.w3.org/2000/svg" xmlns:xlink="http://www.w3.org/1999/xlink"><style>:root>svg{display:none}:root>svg:target{display:block}</style><svg viewBox="0 0 502.664 502.664" id="icon" xmlns="http://www.w3.org/2000/svg"><path d="M153.821 358.226L0 274.337v-46.463l153.821-83.414v54.574L46.636 250.523l107.185 53.431v54.272zm26.273 29.358L282.103 115.08h32.227L212.084 387.584h-31.99zm168.749-29.358v-54.272l107.164-52.999-107.164-52.59v-53.927l153.821 83.522v46.183l-153.821 84.083z"/></svg><svg viewBox="0 0 81 80" id="pay" xmlns="http://www.w3.org/2000/svg"><path d="M39.855.01c-.893.097-1.637.947-1.618 1.844v5.479C21.635 8.235 8.324 21.588 7.41 38.188H1.733c-.951.044-1.776.95-1.731 1.902.044.951.95 1.776 1.902 1.731H7.41c.914 16.599 14.225 29.926 30.827 30.827v5.507c-.014.96.857 1.845 1.817 1.845s1.83-.885 1.816-1.845v-5.507c16.59-.914 29.94-14.238 30.856-30.827h5.478c.96.014 1.845-.856 1.845-1.816 0-.96-.885-1.83-1.845-1.817h-5.478C71.81 21.598 58.46 8.248 41.87 7.333V1.854c.022-1.03-.99-1.958-2.015-1.844zm-1.618 10.985v5.393c-.014.96.857 1.845 1.817 1.845s1.83-.886 1.816-1.845v-5.393c14.617.91 26.297 12.573 27.194 27.193H63.5c-.951.044-1.776.95-1.731 1.902.044.951.95 1.776 1.902 1.731h5.393c-.897 14.618-12.577 26.257-27.193 27.165v-5.365c.021-1.03-.991-1.958-2.016-1.845-.893.098-1.637.948-1.618 1.845v5.365C23.61 68.091 11.94 56.45 11.044 41.821h5.393c.96.014 1.845-.856 1.845-1.816 0-.96-.885-1.83-1.845-1.817h-5.393c.895-14.63 12.566-26.296 27.193-27.193zM31.68 27.259c-.951.045-1.69.951-1.646 1.902.044.952.865 1.777 1.816 1.732h1.817v9.083H31.85c-.96-.013-1.76.857-1.76 1.817s.8 1.83 1.76 1.817h1.817v1.816H31.85a1.817 1.817 0 000 3.634h1.817v3.633c-.014.96.857 1.817 1.817 1.817s1.83-.857 1.816-1.817V49.06h7.267a1.817 1.817 0 100-3.634H37.3V43.61h6.359c4.387 0 8.175-3.625 8.175-8.175 0-4.55-3.788-8.176-8.175-8.176H31.68zm5.62 3.634h6.359c2.348 0 4.541 2.047 4.541 4.542 0 2.494-2.193 4.541-4.541 4.541H37.3v-9.083z"/></svg><svg viewBox="0 0 100 100" id="step-1" xmlns="http://www.w3.org/2000/svg"><path d="M19.6 56.758h-4.508v4.509H19.6v-4.509z"/><path d="M62.383 59.008v2.25h-2.791l-2.025 2.025-2.25 2.25h-6.375v-4.275H24.1v-2.25h25l2.092-2.091 9.166-9.167H24.1V45.5h38.283v.225l4.509-4.508V9.459H8.333v81.083h58.559V53.958l-5.05 5.05h.541zm0-24.775H24.1v-2.25h38.283v2.25zM12.842 16.218h24.775v2.25H12.842v-2.25zm0 4.508h24.775v2.25H12.842v-2.25zm0 6.758h9.008v9h-9.008v-9zm0 13.517h9.008v9h-9.008v-9zm0 13.517h9.008v9h-9.008v-9zM44.375 86.05H12.842V83.8h31.525l.008 2.25zm0-6.758H12.842v-2.25h31.525l.008 2.25zM62.383 72.5H12.842v-2.25h49.541v2.25z"/><path d="M19.6 29.733h-4.508v4.509H19.6v-4.509zM19.6 43.242h-4.508v4.508H19.6v-4.508zM51.35 60.225V63.4h3.175L68.8 49.125l-3.175-3.175L51.35 60.225zM91.008 23.741a2.241 2.241 0 00-3.175 0L67.217 44.367l3.166 3.133 20.625-20.584a2.242 2.242 0 000-3.175z"/><defs><linearGradient id="ca" x1="17.355" y1="61.392" x2="17.355" y2="56.758" gradientUnits="userSpaceOnUse"><stop stop-color="#F2C94C"/><stop offset="1" stop-color="#FFD020"/></linearGradient><linearGradient id="cb" x1="37.727" y1="92.794" x2="37.727" y2="9.459" gradientUnits="userSpaceOnUse"><stop stop-color="#F2C94C"/><stop offset="1" stop-color="#FFD020"/></linearGradient><linearGradient id="cc" x1="17.355" y1="34.367" x2="17.355" y2="29.733" gradientUnits="userSpaceOnUse"><stop stop-color="#F2C94C"/><stop offset="1" stop-color="#FFD020"/></linearGradient><linearGradient id="cd" x1="17.355" y1="47.875" x2="17.355" y2="43.242" gradientUnits="userSpaceOnUse"><stop stop-color="#F2C94C"/><stop offset="1" stop-color="#FFD020"/></linearGradient><linearGradient id="ce" x1="60.109" y1="63.885" x2="60.109" y2="45.95" gradientUnits="userSpaceOnUse"><stop stop-color="#F2C94C"/><stop offset="1" stop-color="#FFD020"/></linearGradient><linearGradient id="cf" x1="79.49" y1="48.178" x2="79.49" y2="23.082" gradientUnits="userSpaceOnUse"><stop stop-color="#F2C94C"/><stop offset="1" stop-color="#FFD020"/></linearGradient></defs></svg><svg viewBox="0 0 100 100" id="step-2" xmlns="http://www.w3.org/2000/svg"><path d="M86.851 77.114l.003.002.646.466v-36.04L60.006 57.767 86.85 77.114zM19.61 27.297h-.672c-3.547 0-6.438 2.891-6.438 6.438v4.172l7.11 4.187V27.297zM81.063 27.297h-.672v14.797l7.109-4.187v-4.172c0-3.547-2.89-6.438-6.438-6.438zM85.023 79.65L52.742 56.386a4.682 4.682 0 00-5.481 0L14.976 79.65 12.5 81.434v2.3c0 .863.7 1.563 1.563 1.563h71.874c.864 0 1.563-.7 1.563-1.563v-2.3l-2.474-1.783h-.002zM22.718 70.219l17.277-12.45L12.5 41.542v36.04l10.216-7.363h.002zM43.375 29.063c-.125-.063-.297-.094-.516-.094-.437 0-1.047.125-1.687.438-1.297.64-2.25 1.906-2.406 3.234-.141 1.078.422 2.813 1.547 2.969.265.031.687.031 1.234-.484 1.344-1.25 2.125-4.188 2.094-5.72-.094-.265-.203-.328-.266-.343z"/><path d="M45.438 53.844a7.787 7.787 0 019.124 0l2.672 1.922 20.032-11.812v-23c0-.875-.688-1.563-1.563-1.563h-12.61v-3.125c0-.86-.702-1.562-1.562-1.562H24.297c-.86 0-1.563.703-1.563 1.562v27.688l20.032 11.812 2.672-1.922zM63.374 27.36h6.672c.875 0 1.562.703 1.562 1.562 0 .875-.687 1.563-1.562 1.563h-6.672c-.86 0-1.563-.688-1.563-1.563 0-.859.704-1.562 1.563-1.562zm0 6.656h6.672c.875 0 1.562.703 1.562 1.563 0 .859-.687 1.562-1.562 1.562h-6.672c-.86 0-1.563-.703-1.563-1.562 0-.86.704-1.563 1.563-1.563zm-27.328 8.375a11.588 11.588 0 01-5.484-7.015c-.813-3-.438-6.125 1.093-8.829a11.52 11.52 0 017.016-5.469c6.11-1.703 12.453 1.844 14.234 7.891a.77.77 0 01.063.203c.015.032.031.063.031.094a.336.336 0 01.016.125c.562 2.844-.313 5.672-2.328 7.36-.985.812-2.204 1.14-3.329.89-1.015-.219-1.859-.875-2.39-1.844-.375.61-.797 1.157-1.297 1.61-.938.89-2.031 1.343-3.172 1.343a4.05 4.05 0 01-.61-.046c-2.953-.407-4.562-3.657-4.234-6.438.297-2.39 1.89-4.562 4.157-5.672.656-.312 2.937-1.281 4.874-.375.72.328 1.626 1.031 2.016 2.516.016.062.031.11.031.172.016.062.016.125.016.171.078 1.188.172 1.813.406 3.079l.047.265c.125.672.234 1.297.453 1.782.078.156.203.343.375.39.188.032.422-.047.657-.25 1.343-1.125 1.53-2.969 1.265-4.328-1.25-4.516-5.922-7.188-10.453-5.937-2.188.609-4 2.03-5.125 4-1.11 1.984-1.406 4.265-.797 6.453a8.446 8.446 0 004 5.125 8.472 8.472 0 006.453.812 9.62 9.62 0 001.72-.687 1.574 1.574 0 012.108.656 1.57 1.57 0 01-.656 2.11c-.75.39-1.531.702-2.328.921a11.26 11.26 0 01-3.125.438c-1.984 0-3.938-.516-5.703-1.516z"/><defs><linearGradient id="da" x1="73.807" y1="78.583" x2="73.807" y2="41.541" gradientUnits="userSpaceOnUse"><stop stop-color="#F2C94C"/><stop offset="1" stop-color="#FFD020"/></linearGradient><linearGradient id="db" x1="16.069" y1="42.505" x2="16.069" y2="27.297" gradientUnits="userSpaceOnUse"><stop stop-color="#F2C94C"/><stop offset="1" stop-color="#FFD020"/></linearGradient><linearGradient id="dc" x1="83.959" y1="42.505" x2="83.959" y2="27.297" gradientUnits="userSpaceOnUse"><stop stop-color="#F2C94C"/><stop offset="1" stop-color="#FFD020"/></linearGradient><linearGradient id="dd" x1="50.147" y1="86.124" x2="50.147" y2="55.5" gradientUnits="userSpaceOnUse"><stop stop-color="#F2C94C"/><stop offset="1" stop-color="#FFD020"/></linearGradient><linearGradient id="de" x1="26.301" y1="78.583" x2="26.301" y2="41.542" gradientUnits="userSpaceOnUse"><stop stop-color="#F2C94C"/><stop offset="1" stop-color="#FFD020"/></linearGradient><linearGradient id="df" x1="41.203" y1="35.806" x2="41.203" y2="28.969" gradientUnits="userSpaceOnUse"><stop stop-color="#F2C94C"/><stop offset="1" stop-color="#FFD020"/></linearGradient><linearGradient id="dg" x1="50.107" y1="56.907" x2="50.107" y2="14.704" gradientUnits="userSpaceOnUse"><stop stop-color="#F2C94C"/><stop offset="1" stop-color="#FFD020"/></linearGradient></defs></svg><svg viewBox="0 0 80 80" id="step-3" xmlns="http://www.w3.org/2000/svg"><path d="M65.2 61.28l-9.76-7.68c-2-1.6-4.88-1.28-6.56.64-1.76 2-2.88 3.36-3.28 3.68-2.96 2.96-9.12-1.36-15.68-7.92-6.56-6.56-10.8-12.64-7.84-15.6.32-.32 1.68-1.52 3.68-3.28 1.92-1.68 2.24-4.56.64-6.56l-7.68-9.76c-1.36-1.68-3.68-2.24-5.6-1.44-2.64 1.12-7.36 5.04-8.64 6.32C-2.56 26.8 6.24 42.96 21.6 58.4c15.36 15.44 31.6 24.24 38.64 17.12 1.28-1.28 5.2-6 6.32-8.64.88-2 .32-4.24-1.36-5.6zM41.2 26.96c-2.08-.48-4.08 1.12-3.92 3.28.08 1.36 1.12 2.48 2.4 2.88 1.68.4 3.28 1.28 4.56 2.56a9.644 9.644 0 012.56 4.56c.32 1.36 1.44 2.32 2.88 2.4 2.16.16 3.76-1.84 3.28-3.92-.56-2.72-2-5.36-4.16-7.52-2.16-2.16-4.8-3.6-7.6-4.24z"/><path d="M62.32 43.6c1.92.16 3.52-1.52 3.36-3.44-.56-6.4-3.28-12.72-8.16-17.6-4.88-4.88-11.2-7.6-17.6-8.16-1.92-.16-3.6 1.44-3.44 3.36.08 1.52 1.28 2.8 2.88 2.96 5.04.4 9.92 2.56 13.68 6.4 3.84 3.84 5.92 8.72 6.4 13.68 0 1.52 1.28 2.72 2.88 2.8z"/><path d="M66.16 13.84C58.56 6.32 48.72 2.32 38.72 2c-1.84-.08-3.36 1.52-3.2 3.36.08 1.6 1.44 2.88 3.04 2.96 8.4.32 16.72 3.68 23.04 10.08 6.4 6.4 9.76 14.72 10 23.04.08 1.6 1.28 2.96 2.96 3.04 1.84.16 3.44-1.36 3.36-3.2-.24-10-4.24-19.84-11.76-27.44z"/><defs><linearGradient id="ea" x1="34.624" y1="79.83" x2="34.624" y2="13.001" gradientUnits="userSpaceOnUse"><stop stop-color="#F2C94C"/><stop offset="1" stop-color="#FFD020"/></linearGradient><linearGradient id="eb" x1="45.189" y1="43.087" x2="45.189" y2="26.875" gradientUnits="userSpaceOnUse"><stop stop-color="#F2C94C"/><stop offset="1" stop-color="#FFD020"/></linearGradient><linearGradient id="ec" x1="51.138" y1="44.422" x2="51.138" y2="14.389" gradientUnits="userSpaceOnUse"><stop stop-color="#F2C94C"/><stop offset="1" stop-color="#FFD020"/></linearGradient><linearGradient id="ed" x1="56.799" y1="45.672" x2="56.799" y2="1.997" gradientUnits="userSpaceOnUse"><stop stop-color="#F2C94C"/><stop offset="1" stop-color="#FFD020"/></linearGradient></defs></svg><svg viewBox="0 0 100 100" id="step-4" xmlns="http://www.w3.org/2000/svg"><path d="M68.7 70C75.6 62.9 85 50.3 85 35.2c0-12.9-10.4-23.3-23.3-23.3S38.4 22.3 38.4 35.2c0 3.7.6 7.3 1.5 10.7l-9.6-8.1H9.7l10 50.4h70.6L68.7 70zm-7-47c6.7 0 12.1 5.4 12.1 12.1 0 6.7-5.4 12.1-12.1 12.1-6.7 0-12.1-5.4-12.1-12.1C49.6 28.4 55 23 61.7 23zM14.6 41.8h7.1l2.3 3.8h3.4l-2.6-3.8h4.1L43 53.6c6.8 13.8 18.8 22.8 18.8 22.8s1.7-1.3 4.2-3.6l13.5 11.3H54.6L46.1 72h-5.5l7.6 12.1H23l-8.4-42.3z"/><path d="M27.3 51.3l8 12.9h5l-9.1-12.9h-3.9z"/><defs><linearGradient id="fa" x1="50.158" y1="90.319" x2="50.158" y2="11.9" gradientUnits="userSpaceOnUse"><stop stop-color="#F2C94C"/><stop offset="1" stop-color="#FFD020"/></linearGradient><linearGradient id="fb" x1="33.825" y1="64.558" x2="33.825" y2="51.3" gradientUnits="userSpaceOnUse"><stop stop-color="#F2C94C"/><stop offset="1" stop-color="#FFD020"/></linearGradient></defs></svg></svg>